<svg width="56" height="42" viewBox="0 0 56 42" fill="none" xmlns="http://www.w3.org/2000/svg">
<rect width="56" height="32" rx="8" fill="#D9D9D9"/>
<path d="M18 42L11.0718 30L24.9282 30L18 42Z" fill="#D9D9D9"/>
<g clip-path="url(#clip0_36_89)">
<rect opacity="0.6" x="17.5" y="5.5" width="21" height="21" rx="2" stroke="#74DCFF" stroke-width="0.04"/>
<rect opacity="0.6" x="16.3333" y="4.33334" width="23.3333" height="23.3333" rx="10" stroke="#A5A5A5" stroke-width="0.04"/>
<rect opacity="0.6" x="22.1667" y="10.1667" width="11.6667" height="11.6667" rx="5.83333" stroke="#A5A5A5" stroke-width="0.04"/>
<rect opacity="0.6" x="16.3333" y="6.66666" width="23.3333" height="18.6667" rx="2" stroke="#FFA800" stroke-width="0.04"/>
<rect opacity="0.6" x="18.6667" y="27.6667" width="23.3333" height="18.6667" rx="2" transform="rotate(-90 18.6667 27.6667)" stroke="#F79DFF" stroke-width="0.04"/>
<path opacity="0.6" d="M42 2L14 30" stroke="#A5A5A5" stroke-width="0.04"/>
<path opacity="0.6" d="M14 2L42 30" stroke="#A5A5A5" stroke-width="0.04"/>
<path fill-rule="evenodd" clip-rule="evenodd" d="M27.0467 8.43998C27.0467 7.87454 27.5141 7.41666 27.9883 7.41666C28.4845 7.41666 28.93 7.85084 28.93 8.40499C28.93 9.24944 29.4325 10.0638 30.2307 10.4103C31.0625 10.7781 32.0086 10.5442 32.6216 9.96524C32.6268 9.96034 32.6319 9.95536 32.637 9.95031C33.0224 9.56488 33.644 9.56803 34.003 9.92699C34.3627 10.2867 34.3658 10.9001 33.9867 11.2861L33.9837 11.2891C33.3958 11.8943 33.1522 12.8914 33.5197 13.7226C33.8665 14.5215 34.7122 15.0408 35.5444 15.0582L35.56 15.0583C36.1254 15.0583 36.5833 15.5257 36.5833 16C36.5833 16.4961 36.1491 16.9417 35.595 16.9417C34.7505 16.9417 33.9362 17.4442 33.5897 18.2424C33.2219 19.0742 33.4557 20.0202 34.0347 20.6333C34.0396 20.6385 34.0446 20.6436 34.0497 20.6487C34.4351 21.0341 34.4319 21.6557 34.073 22.0146C33.7133 22.3743 33.0999 22.3775 32.7139 21.9983L32.7109 21.9954C32.1113 21.4129 31.1501 21.161 30.3124 21.5313C29.4965 21.8856 29.0117 22.7477 29.0117 23.5717C29.0117 24.1371 28.5442 24.595 28.07 24.595C27.5739 24.595 27.1283 24.1608 27.1283 23.6067L27.1282 23.5913C27.1108 22.7421 26.5844 21.9113 25.7368 21.5923C24.9101 21.2375 23.9747 21.4722 23.3667 22.0464C23.3615 22.0513 23.3564 22.0563 23.3513 22.0613C22.9659 22.4468 22.3443 22.4436 21.9853 22.0847C21.6256 21.725 21.6225 21.1116 22.0017 20.7256L22.0017 20.7256L22.0046 20.7226C22.5871 20.123 22.839 19.1617 22.4686 18.324C22.1144 17.5082 21.2523 17.0233 20.4283 17.0233C19.8629 17.0233 19.405 16.5559 19.405 16.0817C19.405 15.5855 19.8392 15.14 20.3933 15.14L20.4086 15.1398C21.2578 15.1225 22.0887 14.5961 22.4077 13.7485C22.7625 12.9217 22.5278 11.9863 21.9536 11.3784C21.9487 11.3732 21.9437 11.3681 21.9387 11.363C21.5532 10.9776 21.5564 10.3559 21.9153 9.99699C22.275 9.63731 22.8884 9.63414 23.2744 10.0133L23.2744 10.0133L23.2774 10.0163C23.8826 10.6042 24.8797 10.8477 25.711 10.4803C26.5098 10.1335 27.0292 9.2878 27.0465 8.45561L27.0467 8.43998ZM27.9883 5.91666C26.5995 5.91666 25.552 7.13251 25.5467 8.42999C25.5382 8.71478 25.337 9.00791 25.1127 9.10478L25.1126 9.10474L25.1054 9.10796C24.8877 9.20469 24.5344 9.14516 24.3237 8.94142C23.3794 8.0158 21.8243 7.96667 20.8547 8.93633C19.8869 9.90413 19.9331 11.4686 20.8686 12.4142C21.0773 12.6397 21.122 12.9483 21.0263 13.1637C21.0191 13.18 21.0124 13.1965 21.0064 13.2132C20.9222 13.446 20.6672 13.6319 20.3836 13.64C19.0519 13.6452 17.905 14.7145 17.905 16.0817C17.905 17.4741 19.1271 18.5233 20.4283 18.5233C20.7231 18.5233 21.003 18.7137 21.0931 18.9223L21.0931 18.9223L21.0963 18.9296C21.1901 19.1407 21.1389 19.4601 20.9298 19.6763C20.0041 20.6205 19.955 22.1757 20.9247 23.1453C21.8925 24.1131 23.4569 24.0669 24.4024 23.1315C24.628 22.9227 24.9366 22.8779 25.1521 22.9737C25.1683 22.9809 25.1848 22.9876 25.2016 22.9936C25.4344 23.0778 25.6202 23.3328 25.6283 23.6164C25.6335 24.9481 26.7028 26.095 28.07 26.095C29.4624 26.095 30.5117 24.8729 30.5117 23.5717C30.5117 23.2768 30.7021 22.9969 30.9106 22.9069L30.9107 22.9069L30.9179 22.9037C31.129 22.8099 31.4484 22.8611 31.6646 23.0702C32.6088 23.9959 34.164 24.045 35.1337 23.0753C36.1015 22.1075 36.0552 20.5431 35.1198 19.5975C34.911 19.372 34.8663 19.0634 34.962 18.8479L34.9621 18.8479L34.9652 18.8406C35.0629 18.6143 35.3207 18.4417 35.595 18.4417C36.9308 18.4417 38.0833 17.3705 38.0833 16C38.0833 14.6112 36.8675 13.5637 35.57 13.5583C35.2852 13.5499 34.9921 13.3487 34.8952 13.1243L34.8952 13.1243L34.892 13.1171C34.7953 12.8995 34.8548 12.5462 35.0585 12.3354C35.9842 11.3912 36.0333 9.83601 35.0637 8.86633C34.0959 7.89853 32.5314 7.94476 31.5858 8.88022C31.3602 9.089 31.0517 9.13371 30.8363 9.03797L30.8363 9.03793L30.829 9.03478C30.6026 8.93703 30.43 8.67924 30.43 8.40499C30.43 7.06913 29.3589 5.91666 27.9883 5.91666ZM26.2067 16.0001C26.2067 15.0096 27.0096 14.2067 28 14.2067C28.9904 14.2067 29.7933 15.0096 29.7933 16.0001C29.7933 16.9905 28.9904 17.7934 28 17.7934C27.0096 17.7934 26.2067 16.9905 26.2067 16.0001ZM28 12.7067C26.1812 12.7067 24.7067 14.1812 24.7067 16.0001C24.7067 17.8189 26.1812 19.2934 28 19.2934C29.8189 19.2934 31.2933 17.8189 31.2933 16.0001C31.2933 14.1812 29.8189 12.7067 28 12.7067Z" fill="black"/>
</g>
<defs>
<clipPath id="clip0_36_89">
<rect x="14" y="2" width="28" height="28" fill="white"/>
</clipPath>
</defs>
</svg>
