<svg width="64" height="64" viewBox="0 0 64 64" fill="none" xmlns="http://www.w3.org/2000/svg">
    <g clip-path="url(#clip0_36_312)">
        <rect opacity="0.6" x="8" y="8" width="48" height="48" rx="2" stroke="#74DCFF" stroke-width="0.04"/>
        <rect opacity="0.6" x="5.33331" y="5.33334" width="53.3333" height="53.3333" rx="10" stroke="#A5A5A5" stroke-width="0.04"/>
        <rect opacity="0.6" x="18.6667" y="18.6667" width="26.6667" height="26.6667" rx="10" stroke="#A5A5A5" stroke-width="0.04"/>
        <rect opacity="0.6" x="5.33331" y="10.6667" width="53.3333" height="42.6667" rx="2" stroke="#FFA800" stroke-width="0.04"/>
        <rect opacity="0.6" x="10.6667" y="58.6667" width="53.3333" height="42.6667" rx="2" transform="rotate(-90 10.6667 58.6667)" stroke="#F79DFF" stroke-width="0.04"/>
        <path opacity="0.6" d="M64 0L0 64" stroke="#A5A5A5" stroke-width="0.04"/>
        <path opacity="0.6" d="M-1.90735e-06 0L64 64" stroke="#A5A5A5" stroke-width="0.04"/>
        <path fill-rule="evenodd" clip-rule="evenodd" d="M24.75 22.6667C24.75 18.6626 27.9959 15.4167 32 15.4167C36.004 15.4167 39.25 18.6626 39.25 22.6667C39.25 26.6707 36.004 29.9167 32 29.9167C27.9959 29.9167 24.75 26.6707 24.75 22.6667ZM32 13.9167C27.1675 13.9167 23.25 17.8342 23.25 22.6667C23.25 27.4992 27.1675 31.4167 32 31.4167C36.8325 31.4167 40.75 27.4992 40.75 22.6667C40.75 17.8342 36.8325 13.9167 32 13.9167ZM14.0833 49.3333C14.0833 47.2431 14.5555 45.6214 15.3793 44.3509C16.2038 43.0793 17.416 42.1049 18.9851 41.369C22.1567 39.8816 26.6771 39.4167 32 39.4167C37.3228 39.4167 41.8433 39.8816 45.0148 41.369C46.5839 42.1049 47.7962 43.0793 48.6207 44.3509C49.4444 45.6214 49.9166 47.2431 49.9166 49.3333C49.9166 49.7475 50.2524 50.0833 50.6666 50.0833C51.0809 50.0833 51.4166 49.7475 51.4166 49.3333C51.4166 47.0102 50.8889 45.0919 49.8793 43.5349C48.8705 41.979 47.416 40.8384 45.6518 40.011C42.1567 38.3718 37.3438 37.9167 32 37.9167C26.6562 37.9167 21.8433 38.3718 18.3482 40.011C16.5839 40.8384 15.1295 41.979 14.1207 43.5349C13.1111 45.0919 12.5833 47.0102 12.5833 49.3333C12.5833 49.7475 12.9191 50.0833 13.3333 50.0833C13.7475 50.0833 14.0833 49.7475 14.0833 49.3333Z" fill="#0081A7"/>
    </g>
    <defs>
        <clipPath id="clip0_36_312">
            <rect width="64" height="64" rx="32" fill="white"/>
        </clipPath>
    </defs>
</svg>
